STARTFONT 2.1
COMMENT  (c) Copyright Bigelow & Holmes 1986, 1985. Lucida is a registered
COMMENT  trademark of Bigelow & Holmes. See LEGAL NOTICE file for terms 
COMMENT  of the license. 
FONT -B&H-LucidaTypewriter-Medium-R-Normal-Sans-14-100-100-100-M-80-ISO8859-1
SIZE 10 100 100
FONTBOUNDINGBOX 11 16 -1 -3
STARTPROPERTIES 19
COMMENT Begin LogicalFontDescription
FONTNAME_REGISTRY ""
FOUNDRY "B&H"
FAMILY_NAME "LucidaTypewriter"
WEIGHT_NAME "Medium"
SLANT "R"
SETWIDTH_NAME "Normal"
ADD_STYLE_NAME "Sans"
PIXEL_SIZE 14
POINT_SIZE 100
RESOLUTION_X 100
RESOLUTION_Y 100
SPACING "M"
AVERAGE_WIDTH 80
CHARSET_REGISTRY "ISO8859"
CHARSET_ENCODING "1"
COMMENT END LogicalFontDescription
FONT_ASCENT 12
FONT_DESCENT 3
DEFAULT_CHAR 32
COPYRIGHT "Copyright Bigelow & Holmes 1986, 1985."
ENDPROPERTIES
CHARS 228
STARTCHAR space
ENCODING 32
SWIDTH 42 0
DWIDTH 8 0
BBX 1 1 0 0
BITMAP
00
ENDCHAR
STARTCHAR exclam
ENCODING 33
SWIDTH 42 0
DWIDTH 8 0
BBX 1 10 4 0
BITMAP
80
80
80
80
80
80
80
00
00
80
ENDCHAR
STARTCHAR quotedbl
ENCODING 34
SWIDTH 42 0
DWIDTH 8 0
BBX 4 3 2 7
BITMAP
90
90
90
ENDCHAR
STARTCHAR numbersign
ENCODING 35
SWIDTH 42 0
DWIDTH 8 0
BBX 8 10 0 0
BITMAP
12
12
16
7F
24
24
FE
68
48
48
ENDCHAR
STARTCHAR dollar
ENCODING 36
SWIDTH 42 0
DWIDTH 8 0
BBX 5 12 2 -1
BITMAP
20
78
A0
A0
E0
60
30
28
28
A8
F0
20
ENDCHAR
STARTCHAR percent
ENCODING 37
SWIDTH 42 0
DWIDTH 8 0
BBX 8 10 0 0
BITMAP
61
92
94
9C
68
10
36
29
49
86
ENDCHAR
STARTCHAR ampersand
ENCODING 38
SWIDTH 42 0
DWIDTH 8 0
BBX 9 10 0 0
BITMAP
1C00
2200
2200
3C00
7000
D880
8C80
8780
C300
3D80
ENDCHAR
STARTCHAR quoteright
ENCODING 39
SWIDTH 42 0
DWIDTH 8 0
BBX 2 4 3 6
BITMAP
C0
C0
40
C0
ENDCHAR
STARTCHAR parenleft
ENCODING 40
SWIDTH 42 0
DWIDTH 8 0
BBX 5 13 2 -3
BITMAP
18
30
40
C0
80
80
80
80
80
40
40
20
18
ENDCHAR
STARTCHAR parenright
ENCODING 41
SWIDTH 42 0
DWIDTH 8 0
BBX 5 13 1 -3
BITMAP
C0
60
10
10
08
08
08
08
08
10
10
20
C0
ENDCHAR
STARTCHAR asterisk
ENCODING 42
SWIDTH 42 0
DWIDTH 8 0
BBX 6 6 1 4
BITMAP
30
B4
CC
28
78
48
ENDCHAR
STARTCHAR plus
ENCODING 43
SWIDTH 42 0
DWIDTH 8 0
BBX 7 7 1 0
BITMAP
10
10
10
FE
10
10
10
ENDCHAR
STARTCHAR comma
ENCODING 44
SWIDTH 42 0
DWIDTH 8 0
BBX 2 5 3 -3
BITMAP
C0
C0
40
40
80
ENDCHAR
STARTCHAR minus
ENCODING 45
SWIDTH 42 0
DWIDTH 8 0
BBX 7 1 1 3
BITMAP
FE
ENDCHAR
STARTCHAR period
ENCODING 46
SWIDTH 42 0
DWIDTH 8 0
BBX 2 1 3 0
BITMAP
C0
ENDCHAR
STARTCHAR slash
ENCODING 47
SWIDTH 42 0
DWIDTH 8 0
BBX 7 13 1 -3
BITMAP
02
04
04
08
08
10
10
10
20
20
40
40
80
ENDCHAR
STARTCHAR zero
ENCODING 48
SWIDTH 42 0
DWIDTH 8 0
BBX 7 10 1 0
BITMAP
38
44
82
82
82
82
82
82
44
38
ENDCHAR
STARTCHAR one
ENCODING 49
SWIDTH 42 0
DWIDTH 8 0
BBX 7 10 1 0
BITMAP
30
F0
10
10
10
10
10
10
10
FE
ENDCHAR
STARTCHAR two
ENCODING 50
SWIDTH 42 0
DWIDTH 8 0
BBX 5 10 2 0
BITMAP
F0
88
08
08
18
30
20
40
C0
F8
ENDCHAR
STARTCHAR three
ENCODING 51
SWIDTH 42 0
DWIDTH 8 0
BBX 5 10 2 0
BITMAP
F0
88
08
08
70
18
08
08
18
F0
ENDCHAR
STARTCHAR four
ENCODING 52
SWIDTH 42 0
DWIDTH 8 0
BBX 6 10 1 0
BITMAP
18
18
38
28
48
88
FC
08
08
08
ENDCHAR
STARTCHAR five
ENCODING 53
SWIDTH 42 0
DWIDTH 8 0
BBX 5 10 2 0
BITMAP
F8
80
80
80
E0
18
08
08
18
F0
ENDCHAR
STARTCHAR six
ENCODING 54
SWIDTH 42 0
DWIDTH 8 0
BBX 7 10 1 0
BITMAP
3C
44
40
80
BC
C6
82
82
46
3C
ENDCHAR
STARTCHAR seven
ENCODING 55
SWIDTH 42 0
DWIDTH 8 0
BBX 6 10 1 0
BITMAP
FC
0C
08
18
10
10
20
20
40
40
ENDCHAR
STARTCHAR eight
ENCODING 56
SWIDTH 42 0
DWIDTH 8 0
BBX 6 10 1 0
BITMAP
78
84
84
CC
70
58
84
84
C4
78
ENDCHAR
STARTCHAR nine
ENCODING 57
SWIDTH 42 0
DWIDTH 8 0
BBX 7 10 1 0
BITMAP
78
C4
82
82
C6
7A
02
04
04
78
ENDCHAR
STARTCHAR colon
ENCODING 58
SWIDTH 42 0
DWIDTH 8 0
BBX 1 7 4 0
BITMAP
80
00
00
00
00
00
80
ENDCHAR
STARTCHAR semicolon
ENCODING 59
SWIDTH 42 0
DWIDTH 8 0
BBX 1 10 4 -3
BITMAP
80
00
00
00
00
80
80
80
80
80
ENDCHAR
STARTCHAR less
ENCODING 60
SWIDTH 42 0
DWIDTH 8 0
BBX 7 7 1 0
BITMAP
02
0C
30
C0
30
0C
02
ENDCHAR
STARTCHAR equal
ENCODING 61
SWIDTH 42 0
DWIDTH 8 0
BBX 7 3 1 2
BITMAP
FE
00
FE
ENDCHAR
STARTCHAR greater
ENCODING 62
SWIDTH 42 0
DWIDTH 8 0
BBX 7 7 1 0
BITMAP
80
60
18
06
18
60
80
ENDCHAR
STARTCHAR question
ENCODING 63
SWIDTH 42 0
DWIDTH 8 0
BBX 6 10 1 0
BITMAP
F8
84
04
0C
18
20
20
00
00
10
ENDCHAR
STARTCHAR at
ENCODING 64
SWIDTH 42 0
DWIDTH 8 0
BBX 9 10 0 0
BITMAP
1E00
6100
4700
8900
9100
9300
9700
CD80
6200
3E00
ENDCHAR
STARTCHAR A
ENCODING 65
SWIDTH 42 0
DWIDTH 8 0
BBX 8 10 0 0
BITMAP
18
18
18
24
24
24
7E
42
42
81
ENDCHAR
STARTCHAR B
ENCODING 66
SWIDTH 42 0
DWIDTH 8 0
BBX 6 10 1 0
BITMAP
F8
84
84
8C
F8
88
84
84
84
F8
ENDCHAR
STARTCHAR C
ENCODING 67
SWIDTH 42 0
DWIDTH 8 0
BBX 7 10 1 0
BITMAP
3E
62
40
80
80
80
80
40
60
3E
ENDCHAR
STARTCHAR D
ENCODING 68
SWIDTH 42 0
DWIDTH 8 0
BBX 7 10 1 0
BITMAP
F8
84
82
82
82
82
82
82
84
F8
ENDCHAR
STARTCHAR E
ENCODING 69
SWIDTH 42 0
DWIDTH 8 0
BBX 6 10 2 0
BITMAP
FC
80
80
80
F8
80
80
80
80
FC
ENDCHAR
STARTCHAR F
ENCODING 70
SWIDTH 42 0
DWIDTH 8 0
BBX 6 10 2 0
BITMAP
FC
80
80
80
80
F8
80
80
80
80
ENDCHAR
STARTCHAR G
ENCODING 71
SWIDTH 42 0
DWIDTH 8 0
BBX 7 10 1 0
BITMAP
3E
62
40
80
80
82
82
42
62
3E
ENDCHAR
STARTCHAR H
ENCODING 72
SWIDTH 42 0
DWIDTH 8 0
BBX 6 10 1 0
BITMAP
84
84
84
84
FC
84
84
84
84
84
ENDCHAR
STARTCHAR I
ENCODING 73
SWIDTH 42 0
DWIDTH 8 0
BBX 5 10 2 0
BITMAP
F8
20
20
20
20
20
20
20
20
F8
ENDCHAR
STARTCHAR J
ENCODING 74
SWIDTH 42 0
DWIDTH 8 0
BBX 5 10 1 0
BITMAP
78
08
08
08
08
08
08
08
08
F0
ENDCHAR
STARTCHAR K
ENCODING 75
SWIDTH 42 0
DWIDTH 8 0
BBX 7 10 1 0
BITMAP
84
88
90
A0
E0
A0
B0
98
8C
86
ENDCHAR
STARTCHAR L
ENCODING 76
SWIDTH 42 0
DWIDTH 8 0
BBX 6 10 2 0
BITMAP
80
80
80
80
80
80
80
80
80
FC
ENDCHAR
STARTCHAR M
ENCODING 77
SWIDTH 42 0
DWIDTH 8 0
BBX 7 10 1 0
BITMAP
C6
C6
C6
C6
AA
AA
AA
AA
92
82
ENDCHAR
STARTCHAR N
ENCODING 78
SWIDTH 42 0
DWIDTH 8 0
BBX 6 10 1 0
BITMAP
84
C4
C4
A4
A4
94
94
8C
8C
84
ENDCHAR
STARTCHAR O
ENCODING 79
SWIDTH 42 0
DWIDTH 8 0
BBX 8 10 0 0
BITMAP
3C
42
C3
81
81
81
81
C3
42
3C
ENDCHAR
STARTCHAR P
ENCODING 80
SWIDTH 42 0
DWIDTH 8 0
BBX 6 10 2 0
BITMAP
F8
84
84
84
88
F0
80
80
80
80
ENDCHAR
STARTCHAR Q
ENCODING 81
SWIDTH 42 0
DWIDTH 8 0
BBX 9 13 0 -3
BITMAP
3C00
4200
C200
8100
8100
8100
8100
C300
4300
3E00
0400
0300
0180
ENDCHAR
STARTCHAR R
ENCODING 82
SWIDTH 42 0
DWIDTH 8 0
BBX 7 10 1 0
BITMAP
F8
84
84
84
88
F0
98
88
84
86
ENDCHAR
STARTCHAR S
ENCODING 83
SWIDTH 42 0
DWIDTH 8 0
BBX 6 10 1 0
BITMAP
78
84
80
C0
60
18
04
04
8C
F8
ENDCHAR
STARTCHAR T
ENCODING 84
SWIDTH 42 0
DWIDTH 8 0
BBX 7 10 1 0
BITMAP
FE
10
10
10
10
10
10
10
10
10
ENDCHAR
STARTCHAR U
ENCODING 85
SWIDTH 42 0
DWIDTH 8 0
BBX 6 10 1 0
BITMAP
84
84
84
84
84
84
84
84
84
78
ENDCHAR
STARTCHAR V
ENCODING 86
SWIDTH 42 0
DWIDTH 8 0
BBX 8 10 0 0
BITMAP
81
42
42
42
24
24
24
18
18
18
ENDCHAR
STARTCHAR W
ENCODING 87
SWIDTH 42 0
DWIDTH 8 0
BBX 8 10 0 0
BITMAP
81
91
91
AA
AA
6A
6A
6A
44
44
ENDCHAR
STARTCHAR X
ENCODING 88
SWIDTH 42 0
DWIDTH 8 0
BBX 8 10 0 0
BITMAP
C3
62
24
18
18
18
3C
24
42
C3
ENDCHAR
STARTCHAR Y
ENCODING 89
SWIDTH 42 0
DWIDTH 8 0
BBX 8 10 0 0
BITMAP
C3
42
24
24
18
10
10
10
10
10
ENDCHAR
STARTCHAR Z
ENCODING 90
SWIDTH 42 0
DWIDTH 8 0
BBX 7 10 1 0
BITMAP
FE
04
04
08
10
10
20
40
40
FE
ENDCHAR
STARTCHAR bracketleft
ENCODING 91
SWIDTH 42 0
DWIDTH 8 0
BBX 4 13 3 -3
BITMAP
F0
80
80
80
80
80
80
80
80
80
80
80
F0
ENDCHAR
STARTCHAR backslash
ENCODING 92
SWIDTH 42 0
DWIDTH 8 0
BBX 7 13 1 -3
BITMAP
80
40
40
20
20
10
10
10
08
08
04
04
02
ENDCHAR
STARTCHAR bracketright
ENCODING 93
SWIDTH 42 0
DWIDTH 8 0
BBX 4 13 1 -3
BITMAP
F0
10
10
10
10
10
10
10
10
10
10
10
F0
ENDCHAR
STARTCHAR asciicircum
ENCODING 94
SWIDTH 42 0
DWIDTH 8 0
BBX 7 8 1 2
BITMAP
10
10
38
28
28
44
44
82
ENDCHAR
STARTCHAR underscore
ENCODING 95
SWIDTH 42 0
DWIDTH 8 0
BBX 8 1 0 -2
BITMAP
FF
ENDCHAR
STARTCHAR quoteleft
ENCODING 96
SWIDTH 42 0
DWIDTH 8 0
BBX 2 4 3 6
BITMAP
C0
80
C0
C0
ENDCHAR
STARTCHAR a
ENCODING 97
SWIDTH 42 0
DWIDTH 8 0
BBX 7 7 1 0
BITMAP
7C
44
04
7C
C4
84
7E
ENDCHAR
STARTCHAR b
ENCODING 98
SWIDTH 42 0
DWIDTH 8 0
BBX 6 10 1 0
BITMAP
80
80
80
B8
CC
84
84
84
8C
F8
ENDCHAR
STARTCHAR c
ENCODING 99
SWIDTH 42 0
DWIDTH 8 0
BBX 6 7 1 0
BITMAP
3C
40
80
80
80
40
3C
ENDCHAR
STARTCHAR d
ENCODING 100
SWIDTH 42 0
DWIDTH 8 0
BBX 6 10 1 0
BITMAP
04
04
04
7C
C4
84
84
84
CC
74
ENDCHAR
STARTCHAR e
ENCODING 101
SWIDTH 42 0
DWIDTH 8 0
BBX 6 7 1 0
BITMAP
78
CC
84
FC
80
44
3C
ENDCHAR
STARTCHAR f
ENCODING 102
SWIDTH 42 0
DWIDTH 8 0
BBX 7 11 1 0
BITMAP
1E
20
20
20
FE
20
20
20
20
20
20
ENDCHAR
STARTCHAR g
ENCODING 103
SWIDTH 42 0
DWIDTH 8 0
BBX 7 10 1 -3
BITMAP
3A
46
82
82
82
C6
7A
02
42
7C
ENDCHAR
STARTCHAR h
ENCODING 104
SWIDTH 42 0
DWIDTH 8 0
BBX 6 10 1 0
BITMAP
80
80
80
B8
C4
84
84
84
84
84
ENDCHAR
STARTCHAR i
ENCODING 105
SWIDTH 42 0
DWIDTH 8 0
BBX 4 10 1 0
BITMAP
10
00
00
F0
10
10
10
10
10
10
ENDCHAR
STARTCHAR j
ENCODING 106
SWIDTH 42 0
DWIDTH 8 0
BBX 5 13 1 -3
BITMAP
08
00
00
78
08
08
08
08
08
08
08
08
F0
ENDCHAR
STARTCHAR k
ENCODING 107
SWIDTH 42 0
DWIDTH 8 0
BBX 6 10 2 0
BITMAP
80
80
80
98
90
A0
E0
B0
90
8C
ENDCHAR
STARTCHAR l
ENCODING 108
SWIDTH 42 0
DWIDTH 8 0
BBX 4 10 1 0
BITMAP
F0
10
10
10
10
10
10
10
10
10
ENDCHAR
STARTCHAR m
ENCODING 109
SWIDTH 42 0
DWIDTH 8 0
BBX 7 7 1 0
BITMAP
B6
DA
92
92
92
92
92
ENDCHAR
STARTCHAR n
ENCODING 110
SWIDTH 42 0
DWIDTH 8 0
BBX 6 7 1 0
BITMAP
B8
C4
84
84
84
84
84
ENDCHAR
STARTCHAR o
ENCODING 111
SWIDTH 42 0
DWIDTH 8 0
BBX 7 7 1 0
BITMAP
38
44
82
82
82
44
38
ENDCHAR
STARTCHAR p
ENCODING 112
SWIDTH 42 0
DWIDTH 8 0
BBX 6 10 1 -3
BITMAP
B8
CC
84
84
84
8C
F8
80
80
80
ENDCHAR
STARTCHAR q
ENCODING 113
SWIDTH 42 0
DWIDTH 8 0
BBX 6 10 1 -3
BITMAP
7C
C4
84
84
84
CC
74
04
04
04
ENDCHAR
STARTCHAR r
ENCODING 114
SWIDTH 42 0
DWIDTH 8 0
BBX 5 7 2 0
BITMAP
B8
C8
80
80
80
80
80
ENDCHAR
STARTCHAR s
ENCODING 115
SWIDTH 42 0
DWIDTH 8 0
BBX 6 7 1 0
BITMAP
7C
80
C0
78
04
84
F8
ENDCHAR
STARTCHAR t
ENCODING 116
SWIDTH 42 0
DWIDTH 8 0
BBX 6 9 1 0
BITMAP
20
20
FC
20
20
20
20
20
1C
ENDCHAR
STARTCHAR u
ENCODING 117
SWIDTH 42 0
DWIDTH 8 0
BBX 6 7 1 0
BITMAP
84
84
84
84
84
8C
74
ENDCHAR
STARTCHAR v
ENCODING 118
SWIDTH 42 0
DWIDTH 8 0
BBX 8 7 0 0
BITMAP
81
42
42
24
24
18
18
ENDCHAR
STARTCHAR w
ENCODING 119
SWIDTH 42 0
DWIDTH 8 0
BBX 8 7 0 0
BITMAP
81
99
9A
6A
66
66
66
ENDCHAR
STARTCHAR x
ENCODING 120
SWIDTH 42 0
DWIDTH 8 0
BBX 7 7 1 0
BITMAP
C6
6C
28
10
28
4C
C6
ENDCHAR
STARTCHAR y
ENCODING 121
SWIDTH 42 0
DWIDTH 8 0
BBX 7 10 1 -3
BITMAP
82
44
44
2C
28
28
10
10
20
E0
ENDCHAR
STARTCHAR z
ENCODING 122
SWIDTH 42 0
DWIDTH 8 0
BBX 7 7 1 0
BITMAP
FE
04
08
10
20
40
FE
ENDCHAR
STARTCHAR braceleft
ENCODING 123
SWIDTH 42 0
DWIDTH 8 0
BBX 5 13 2 -3
BITMAP
18
20
20
20
20
20
C0
20
20
20
20
20
18
ENDCHAR
STARTCHAR bar
ENCODING 124
SWIDTH 42 0
DWIDTH 8 0
BBX 1 13 4 -3
BITMAP
80
80
80
80
80
80
80
80
80
80
80
80
80
ENDCHAR
STARTCHAR braceright
ENCODING 125
SWIDTH 42 0
DWIDTH 8 0
BBX 5 13 2 -3
BITMAP
C0
20
20
20
20
20
18
20
20
20
20
20
C0
ENDCHAR
STARTCHAR asciitilde
ENCODING 126
SWIDTH 42 0
DWIDTH 8 0
BBX 7 3 1 2
BITMAP
62
92
8C
ENDCHAR
STARTCHAR exclamdown
ENCODING 161
SWIDTH 42 0
DWIDTH 8 0
BBX 1 10 4 -3
BITMAP
80
00
00
80
80
80
80
80
80
80
ENDCHAR
STARTCHAR cent
ENCODING 162
SWIDTH 42 0
DWIDTH 8 0
BBX 6 10 1 0
BITMAP
10
3C
54
90
90
90
90
54
3C
10
ENDCHAR
STARTCHAR sterling
ENCODING 163
SWIDTH 42 0
DWIDTH 8 0
BBX 5 10 2 0
BITMAP
38
40
40
40
E0
40
40
40
80
F8
ENDCHAR
STARTCHAR currency
ENCODING 164
SWIDTH 42 0
DWIDTH 8 0
BBX 7 8 1 1
BITMAP
82
C6
7C
44
44
44
7C
82
ENDCHAR
STARTCHAR yen
ENCODING 165
SWIDTH 42 0
DWIDTH 8 0
BBX 7 10 1 0
BITMAP
C6
44
28
10
7C
10
7C
10
10
10
ENDCHAR
STARTCHAR brokenbar
ENCODING 166
SWIDTH 42 0
DWIDTH 8 0
BBX 1 13 4 -3
BITMAP
80
80
80
80
80
00
00
00
80
80
80
80
80
ENDCHAR
STARTCHAR section
ENCODING 167
SWIDTH 42 0
DWIDTH 8 0
BBX 5 13 2 -3
BITMAP
78
80
80
C0
70
98
88
C8
30
18
08
88
F0
ENDCHAR
STARTCHAR dieresis
ENCODING 168
SWIDTH 42 0
DWIDTH 8 0
BBX 4 1 2 9
BITMAP
90
ENDCHAR
STARTCHAR copyright
ENCODING 169
SWIDTH 42 0
DWIDTH 8 0
BBX 8 10 0 0
BITMAP
3C
42
9D
B1
A1
A1
B1
9D
42
3C
ENDCHAR
STARTCHAR ordfeminine
ENCODING 170
SWIDTH 42 0
DWIDTH 8 0
BBX 5 5 2 5
BITMAP
F0
90
70
90
F8
ENDCHAR
STARTCHAR guillemotleft
ENCODING 171
SWIDTH 42 0
DWIDTH 8 0
BBX 7 7 1 0
BITMAP
12
24
48
D8
48
24
12
ENDCHAR
STARTCHAR logicalnot
ENCODING 172
SWIDTH 42 0
DWIDTH 8 0
BBX 7 3 1 2
BITMAP
FE
02
02
ENDCHAR
STARTCHAR hyphen
ENCODING 173
SWIDTH 42 0
DWIDTH 8 0
BBX 6 1 1 3
BITMAP
FC
ENDCHAR
STARTCHAR registered
ENCODING 174
SWIDTH 42 0
DWIDTH 8 0
BBX 7 6 1 4
BITMAP
38
FE
AA
BA
EE
38
ENDCHAR
STARTCHAR macron
ENCODING 175
SWIDTH 42 0
DWIDTH 8 0
BBX 4 1 2 9
BITMAP
F0
ENDCHAR
STARTCHAR degree
ENCODING 176
SWIDTH 42 0
DWIDTH 8 0
BBX 3 2 4 8
BITMAP
E0
60
ENDCHAR
STARTCHAR plusminus
ENCODING 177
SWIDTH 42 0
DWIDTH 8 0
BBX 7 7 1 0
BITMAP
10
10
FE
10
10
00
FE
ENDCHAR
STARTCHAR twosuperior
ENCODING 178
SWIDTH 42 0
DWIDTH 8 0
BBX 3 5 -1 5
BITMAP
E0
20
60
40
E0
ENDCHAR
STARTCHAR threesuperior
ENCODING 179
SWIDTH 42 0
DWIDTH 8 0
BBX 3 5 -1 5
BITMAP
E0
20
C0
20
E0
ENDCHAR
STARTCHAR acute
ENCODING 180
SWIDTH 42 0
DWIDTH 8 0
BBX 3 1 3 9
BITMAP
E0
ENDCHAR
STARTCHAR mu
ENCODING 181
SWIDTH 42 0
DWIDTH 8 0
BBX 6 10 1 -3
BITMAP
84
84
84
84
84
8C
F4
80
80
80
ENDCHAR
STARTCHAR paragraph
ENCODING 182
SWIDTH 42 0
DWIDTH 8 0
BBX 6 13 1 -3
BITMAP
7C
F4
F4
F4
74
14
14
14
14
14
14
14
14
ENDCHAR
STARTCHAR periodcentered
ENCODING 183
SWIDTH 42 0
DWIDTH 8 0
BBX 2 1 3 3
BITMAP
C0
ENDCHAR
STARTCHAR cedilla
ENCODING 184
SWIDTH 42 0
DWIDTH 8 0
BBX 2 3 3 -3
BITMAP
80
40
C0
ENDCHAR
STARTCHAR onesuperior
ENCODING 185
SWIDTH 42 0
DWIDTH 8 0
BBX 3 5 -1 5
BITMAP
C0
40
40
40
E0
ENDCHAR
STARTCHAR ordmasculine
ENCODING 186
SWIDTH 42 0
DWIDTH 8 0
BBX 5 5 2 5
BITMAP
70
88
88
88
70
ENDCHAR
STARTCHAR guillemotright
ENCODING 187
SWIDTH 42 0
DWIDTH 8 0
BBX 7 7 1 0
BITMAP
90
48
24
36
64
48
90
ENDCHAR
STARTCHAR onequarter
ENCODING 188
SWIDTH 42 0
DWIDTH 8 0
BBX 8 10 2 0
BITMAP
C3
42
44
4C
E8
12
36
2A
4F
82
ENDCHAR
STARTCHAR onehalf
ENCODING 189
SWIDTH 42 0
DWIDTH 8 0
BBX 8 10 2 0
BITMAP
C3
42
44
4C
E8
17
31
23
42
87
ENDCHAR
STARTCHAR threequarters
ENCODING 190
SWIDTH 42 0
DWIDTH 8 0
BBX 8 10 2 0
BITMAP
E3
22
C4
2C
E8
12
36
2A
4F
82
ENDCHAR
STARTCHAR questiondown
ENCODING 191
SWIDTH 42 0
DWIDTH 8 0
BBX 6 10 1 -3
BITMAP
20
00
00
10
30
60
C0
80
C4
7C
ENDCHAR
STARTCHAR Agrave
ENCODING 192
SWIDTH 42 0
DWIDTH 8 0
BBX 8 12 0 0
BITMAP
1C
00
18
18
18
24
24
24
7E
42
42
81
ENDCHAR
STARTCHAR Aacute
ENCODING 193
SWIDTH 42 0
DWIDTH 8 0
BBX 8 12 0 0
BITMAP
38
00
18
18
18
24
24
24
7E
42
42
81
ENDCHAR
STARTCHAR Acircumflex
ENCODING 194
SWIDTH 42 0
DWIDTH 8 0
BBX 8 12 0 0
BITMAP
3E
00
18
18
18
24
24
24
7E
42
42
81
ENDCHAR
STARTCHAR Atilde
ENCODING 195
SWIDTH 42 0
DWIDTH 8 0
BBX 8 12 0 0
BITMAP
3E
00
18
18
18
24
24
24
7E
42
42
81
ENDCHAR
STARTCHAR Adieresis
ENCODING 196
SWIDTH 42 0
DWIDTH 8 0
BBX 8 12 0 0
BITMAP
24
00
18
18
18
24
24
24
7E
42
42
81
ENDCHAR
STARTCHAR Aring
ENCODING 197
SWIDTH 42 0
DWIDTH 8 0
BBX 8 13 0 0
BITMAP
18
18
00
18
18
18
24
24
24
7E
42
42
81
ENDCHAR
STARTCHAR AE
ENCODING 198
SWIDTH 42 0
DWIDTH 8 0
BBX 8 10 0 0
BITMAP
0F
18
18
18
28
2E
68
78
48
8F
ENDCHAR
STARTCHAR Ccedilla
ENCODING 199
SWIDTH 42 0
DWIDTH 8 0
BBX 7 13 1 -3
BITMAP
3E
62
40
80
80
80
80
40
60
3E
10
08
18
ENDCHAR
STARTCHAR Egrave
ENCODING 200
SWIDTH 42 0
DWIDTH 8 0
BBX 6 12 2 0
BITMAP
70
00
FC
80
80
80
F8
80
80
80
80
FC
ENDCHAR
STARTCHAR Eacute
ENCODING 201
SWIDTH 42 0
DWIDTH 8 0
BBX 6 12 2 0
BITMAP
70
00
FC
80
80
80
F8
80
80
80
80
FC
ENDCHAR
STARTCHAR Ecircumflex
ENCODING 202
SWIDTH 42 0
DWIDTH 0 0
BBX 0 0 0 0
BITMAP
ENDCHAR
STARTCHAR Edieresis
ENCODING 203
SWIDTH 42 0
DWIDTH 8 0
BBX 6 12 2 0
BITMAP
48
00
FC
80
80
80
F8
80
80
80
80
FC
ENDCHAR
STARTCHAR Igrave
ENCODING 204
SWIDTH 42 0
DWIDTH 8 0
BBX 5 12 2 0
BITMAP
70
00
F8
20
20
20
20
20
20
20
20
F8
ENDCHAR
STARTCHAR Iacute
ENCODING 205
SWIDTH 42 0
DWIDTH 8 0
BBX 5 12 2 0
BITMAP
70
00
F8
20
20
20
20
20
20
20
20
F8
ENDCHAR
STARTCHAR Icircumflex
ENCODING 206
SWIDTH 42 0
DWIDTH 8 0
BBX 5 12 2 0
BITMAP
F8
00
F8
20
20
20
20
20
20
20
20
F8
ENDCHAR
STARTCHAR Idieresis
ENCODING 207
SWIDTH 42 0
DWIDTH 8 0
BBX 5 12 2 0
BITMAP
90
00
F8
20
20
20
20
20
20
20
20
F8
ENDCHAR
STARTCHAR Eth
ENCODING 208
SWIDTH 42 0
DWIDTH 8 0
BBX 8 10 0 0
BITMAP
7C
42
41
41
F1
41
41
41
42
7C
ENDCHAR
STARTCHAR Ntilde
ENCODING 209
SWIDTH 42 0
DWIDTH 8 0
BBX 6 12 1 0
BITMAP
7C
00
84
C4
C4
A4
A4
94
94
8C
8C
84
ENDCHAR
STARTCHAR Ograve
ENCODING 210
SWIDTH 42 0
DWIDTH 8 0
BBX 8 12 0 0
BITMAP
1C
00
3C
42
C3
81
81
81
81
C3
42
3C
ENDCHAR
STARTCHAR Oacute
ENCODING 211
SWIDTH 42 0
DWIDTH 8 0
BBX 8 12 0 0
BITMAP
38
00
3C
42
C3
81
81
81
81
C3
42
3C
ENDCHAR
STARTCHAR Ocircumflex
ENCODING 212
SWIDTH 42 0
DWIDTH 8 0
BBX 8 12 0 0
BITMAP
3E
00
3C
42
C3
81
81
81
81
C3
42
3C
ENDCHAR
STARTCHAR Otilde
ENCODING 213
SWIDTH 42 0
DWIDTH 8 0
BBX 8 12 0 0
BITMAP
3E
00
3C
42
C3
81
81
81
81
C3
42
3C
ENDCHAR
STARTCHAR Odieresis
ENCODING 214
SWIDTH 42 0
DWIDTH 8 0
BBX 8 12 0 0
BITMAP
24
00
3C
42
C3
81
81
81
81
C3
42
3C
ENDCHAR
STARTCHAR multiply
ENCODING 215
SWIDTH 42 0
DWIDTH 8 0
BBX 7 7 1 0
BITMAP
10
00
00
FE
00
00
10
ENDCHAR
STARTCHAR Oslash
ENCODING 216
SWIDTH 42 0
DWIDTH 8 0
BBX 8 10 0 0
BITMAP
3F
43
C7
85
89
91
A1
E3
C2
FC
ENDCHAR
STARTCHAR Ugrave
ENCODING 217
SWIDTH 42 0
DWIDTH 8 0
BBX 6 12 1 0
BITMAP
38
00
84
84
84
84
84
84
84
84
84
78
ENDCHAR
STARTCHAR Uacute
ENCODING 218
SWIDTH 42 0
DWIDTH 8 0
BBX 6 12 1 0
BITMAP
70
00
84
84
84
84
84
84
84
84
84
78
ENDCHAR
STARTCHAR Ucircumflex
ENCODING 219
SWIDTH 42 0
DWIDTH 8 0
BBX 6 12 1 0
BITMAP
F8
00
84
84
84
84
84
84
84
84
84
78
ENDCHAR
STARTCHAR Udieresis
ENCODING 220
SWIDTH 42 0
DWIDTH 8 0
BBX 6 12 1 0
BITMAP
48
00
84
84
84
84
84
84
84
84
84
78
ENDCHAR
STARTCHAR Yacute
ENCODING 221
SWIDTH 42 0
DWIDTH 8 0
BBX 8 12 0 0
BITMAP
38
00
C3
42
24
24
18
10
10
10
10
10
ENDCHAR
STARTCHAR Thorn
ENCODING 222
SWIDTH 42 0
DWIDTH 8 0
BBX 6 10 2 0
BITMAP
80
80
F8
84
84
84
88
F0
80
80
ENDCHAR
STARTCHAR germandbls
ENCODING 223
SWIDTH 42 0
DWIDTH 8 0
BBX 6 11 2 0
BITMAP
70
88
88
90
A0
A0
90
8C
84
A4
B8
ENDCHAR
STARTCHAR agrave
ENCODING 224
SWIDTH 42 0
DWIDTH 8 0
BBX 7 9 1 0
BITMAP
38
00
7C
44
04
7C
C4
84
7E
ENDCHAR
STARTCHAR aacute
ENCODING 225
SWIDTH 42 0
DWIDTH 8 0
BBX 7 9 1 0
BITMAP
38
00
7C
44
04
7C
C4
84
7E
ENDCHAR
STARTCHAR acircumflex
ENCODING 226
SWIDTH 42 0
DWIDTH 8 0
BBX 7 9 1 0
BITMAP
7C
00
7C
44
04
7C
C4
84
7E
ENDCHAR
STARTCHAR atilde
ENCODING 227
SWIDTH 42 0
DWIDTH 8 0
BBX 7 9 1 0
BITMAP
7C
00
7C
44
04
7C
C4
84
7E
ENDCHAR
STARTCHAR adieresis
ENCODING 228
SWIDTH 42 0
DWIDTH 8 0
BBX 7 9 1 0
BITMAP
48
00
7C
44
04
7C
C4
84
7E
ENDCHAR
STARTCHAR aring
ENCODING 229
SWIDTH 42 0
DWIDTH 8 0
BBX 7 10 1 0
BITMAP
30
30
00
7C
44
04
7C
C4
84
7E
ENDCHAR
STARTCHAR ae
ENCODING 230
SWIDTH 42 0
DWIDTH 8 0
BBX 8 7 0 0
BITMAP
76
09
09
7F
88
88
7F
ENDCHAR
STARTCHAR ccedilla
ENCODING 231
SWIDTH 42 0
DWIDTH 8 0
BBX 6 10 1 -3
BITMAP
3C
40
80
80
80
40
3C
20
10
30
ENDCHAR
STARTCHAR egrave
ENCODING 232
SWIDTH 42 0
DWIDTH 8 0
BBX 6 9 1 0
BITMAP
38
00
78
CC
84
FC
80
44
3C
ENDCHAR
STARTCHAR eacute
ENCODING 233
SWIDTH 42 0
DWIDTH 8 0
BBX 6 9 1 0
BITMAP
70
00
78
CC
84
FC
80
44
3C
ENDCHAR
STARTCHAR ecircumflex
ENCODING 234
SWIDTH 42 0
DWIDTH 8 0
BBX 6 9 1 0
BITMAP
F8
00
78
CC
84
FC
80
44
3C
ENDCHAR
STARTCHAR edieresis
ENCODING 235
SWIDTH 42 0
DWIDTH 8 0
BBX 6 9 1 0
BITMAP
48
00
78
CC
84
FC
80
44
3C
ENDCHAR
STARTCHAR igrave
ENCODING 236
SWIDTH 42 0
DWIDTH 8 0
BBX 5 9 1 0
BITMAP
38
00
F0
10
10
10
10
10
10
ENDCHAR
STARTCHAR iacute
ENCODING 237
SWIDTH 42 0
DWIDTH 8 0
BBX 4 9 1 0
BITMAP
70
00
F0
10
10
10
10
10
10
ENDCHAR
STARTCHAR icircumflex
ENCODING 238
SWIDTH 42 0
DWIDTH 8 0
BBX 5 9 1 0
BITMAP
F8
00
F0
10
10
10
10
10
10
ENDCHAR
STARTCHAR idieresis
ENCODING 239
SWIDTH 42 0
DWIDTH 8 0
BBX 5 9 1 0
BITMAP
48
00
F0
10
10
10
10
10
10
ENDCHAR
STARTCHAR eth
ENCODING 240
SWIDTH 42 0
DWIDTH 8 0
BBX 7 10 1 0
BITMAP
F8
78
8C
3C
46
82
82
82
44
38
ENDCHAR
STARTCHAR ntilde
ENCODING 241
SWIDTH 42 0
DWIDTH 8 0
BBX 6 9 1 0
BITMAP
F8
00
B8
C4
84
84
84
84
84
ENDCHAR
STARTCHAR ograve
ENCODING 242
SWIDTH 42 0
DWIDTH 8 0
BBX 7 9 1 0
BITMAP
38
00
38
44
82
82
82
44
38
ENDCHAR
STARTCHAR oacute
ENCODING 243
SWIDTH 42 0
DWIDTH 8 0
BBX 7 9 1 0
BITMAP
38
00
38
44
82
82
82
44
38
ENDCHAR
STARTCHAR ocircumflex
ENCODING 244
SWIDTH 42 0
DWIDTH 8 0
BBX 7 9 1 0
BITMAP
7C
00
38
44
82
82
82
44
38
ENDCHAR
STARTCHAR otilde
ENCODING 245
SWIDTH 42 0
DWIDTH 8 0
BBX 7 9 1 0
BITMAP
7C
00
38
44
82
82
82
44
38
ENDCHAR
STARTCHAR odieresis
ENCODING 246
SWIDTH 42 0
DWIDTH 8 0
BBX 7 9 1 0
BITMAP
48
00
38
44
82
82
82
44
38
ENDCHAR
STARTCHAR divide
ENCODING 247
SWIDTH 42 0
DWIDTH 8 0
BBX 7 7 1 0
BITMAP
82
44
28
10
28
44
82
ENDCHAR
STARTCHAR oslash
ENCODING 248
SWIDTH 42 0
DWIDTH 8 0
BBX 7 7 1 0
BITMAP
3E
46
8A
92
A2
C4
F8
ENDCHAR
STARTCHAR ugrave
ENCODING 249
SWIDTH 42 0
DWIDTH 8 0
BBX 6 9 1 0
BITMAP
38
00
84
84
84
84
84
8C
74
ENDCHAR
STARTCHAR uacute
ENCODING 250
SWIDTH 42 0
DWIDTH 8 0
BBX 6 9 1 0
BITMAP
70
00
84
84
84
84
84
8C
74
ENDCHAR
STARTCHAR ucircumflex
ENCODING 251
SWIDTH 42 0
DWIDTH 8 0
BBX 6 9 1 0
BITMAP
7C
00
84
84
84
84
84
8C
74
ENDCHAR
STARTCHAR udieresis
ENCODING 252
SWIDTH 42 0
DWIDTH 8 0
BBX 6 9 1 0
BITMAP
48
00
84
84
84
84
84
8C
74
ENDCHAR
STARTCHAR yacute
ENCODING 253
SWIDTH 42 0
DWIDTH 8 0
BBX 7 12 1 -3
BITMAP
38
00
82
44
44
2C
28
28
10
10
20
E0
ENDCHAR
STARTCHAR thorn
ENCODING 254
SWIDTH 42 0
DWIDTH 8 0
BBX 6 13 1 -3
BITMAP
80
80
80
B8
CC
84
84
84
8C
F8
80
80
80
ENDCHAR
STARTCHAR ydieresis
ENCODING 255
SWIDTH 42 0
DWIDTH 8 0
BBX 7 12 1 -3
BITMAP
48
00
82
44
44
2C
28
28
10
10
20
E0
ENDCHAR
STARTCHAR fl
ENCODING -1
SWIDTH 42 0
DWIDTH 8 0
BBX 6 11 1 0
BITMAP
3C
44
44
44
F4
44
44
44
44
44
44
ENDCHAR
STARTCHAR endash
ENCODING -1
SWIDTH 42 0
DWIDTH 8 0
BBX 7 1 1 3
BITMAP
FE
ENDCHAR
STARTCHAR dagger
ENCODING -1
SWIDTH 42 0
DWIDTH 8 0
BBX 5 13 2 -3
BITMAP
20
20
20
20
F8
20
20
20
20
20
20
20
20
ENDCHAR
STARTCHAR Zcaron
ENCODING -1
SWIDTH 42 0
DWIDTH 8 0
BBX 7 12 1 0
BITMAP
7C
00
FE
04
04
08
10
10
20
40
40
FE
ENDCHAR
STARTCHAR oe
ENCODING -1
SWIDTH 42 0
DWIDTH 8 0
BBX 8 7 0 0
BITMAP
76
D9
89
8F
88
89
7F
ENDCHAR
STARTCHAR Ydieresis
ENCODING -1
SWIDTH 42 0
DWIDTH 8 0
BBX 8 12 0 0
BITMAP
24
00
C3
42
24
24
18
10
10
10
10
10
ENDCHAR
STARTCHAR dotlessi
ENCODING -1
SWIDTH 42 0
DWIDTH 8 0
BBX 4 7 1 0
BITMAP
F0
10
10
10
10
10
10
ENDCHAR
STARTCHAR lslash
ENCODING -1
SWIDTH 42 0
DWIDTH 8 0
BBX 6 10 1 0
BITMAP
F0
10
10
14
18
70
50
10
10
10
ENDCHAR
STARTCHAR Lslash
ENCODING -1
SWIDTH 42 0
DWIDTH 8 0
BBX 8 10 0 0
BITMAP
20
20
20
28
30
E0
A0
20
20
3F
ENDCHAR
STARTCHAR daggerdbl
ENCODING -1
SWIDTH 42 0
DWIDTH 8 0
BBX 5 13 2 -3
BITMAP
20
20
20
20
F8
20
20
20
F8
20
20
20
20
ENDCHAR
STARTCHAR fi
ENCODING -1
SWIDTH 42 0
DWIDTH 8 0
BBX 6 11 1 0
BITMAP
30
74
40
40
FC
44
44
44
44
44
44
ENDCHAR
STARTCHAR guilsinglright
ENCODING -1
SWIDTH 42 0
DWIDTH 8 0
BBX 4 7 2 0
BITMAP
80
40
20
30
20
40
80
ENDCHAR
STARTCHAR OE
ENCODING -1
SWIDTH 42 0
DWIDTH 8 0
BBX 8 10 0 0
BITMAP
7F
C8
88
88
8E
88
88
88
C8
7F
ENDCHAR
STARTCHAR emdash
ENCODING -1
SWIDTH 42 0
DWIDTH 8 0
BBX 8 1 0 3
BITMAP
FF
ENDCHAR
STARTCHAR caron
ENCODING -1
SWIDTH 42 0
DWIDTH 8 0
BBX 5 1 2 9
BITMAP
F8
ENDCHAR
STARTCHAR ogonek
ENCODING -1
SWIDTH 42 0
DWIDTH 8 0
BBX 2 3 3 -3
BITMAP
C0
80
C0
ENDCHAR
STARTCHAR hungarumlaut
ENCODING -1
SWIDTH 42 0
DWIDTH 8 0
BBX 5 1 2 9
BITMAP
F8
ENDCHAR
STARTCHAR guilsinglleft
ENCODING -1
SWIDTH 42 0
DWIDTH 8 0
BBX 4 7 2 0
BITMAP
10
20
40
C0
40
20
10
ENDCHAR
STARTCHAR dotaccent
ENCODING -1
SWIDTH 42 0
DWIDTH 8 0
BBX 1 1 4 9
BITMAP
80
ENDCHAR
STARTCHAR breve
ENCODING -1
SWIDTH 42 0
DWIDTH 8 0
BBX 5 1 2 9
BITMAP
F8
ENDCHAR
STARTCHAR bullet
ENCODING -1
SWIDTH 42 0
DWIDTH 8 0
BBX 4 4 2 1
BITMAP
F0
F0
F0
F0
ENDCHAR
STARTCHAR tilde
ENCODING -1
SWIDTH 42 0
DWIDTH 8 0
BBX 5 1 2 9
BITMAP
F8
ENDCHAR
STARTCHAR circumflex
ENCODING -1
SWIDTH 42 0
DWIDTH 8 0
BBX 5 1 2 9
BITMAP
F8
ENDCHAR
STARTCHAR quotedblleft
ENCODING -1
SWIDTH 42 0
DWIDTH 8 0
BBX 5 3 2 7
BITMAP
98
90
98
ENDCHAR
STARTCHAR quotesingle
ENCODING -1
SWIDTH 42 0
DWIDTH 8 0
BBX 3 4 3 6
BITMAP
E0
E0
40
40
ENDCHAR
STARTCHAR scaron
ENCODING -1
SWIDTH 42 0
DWIDTH 8 0
BBX 6 9 1 0
BITMAP
F8
00
7C
80
C0
78
04
84
F8
ENDCHAR
STARTCHAR ring
ENCODING -1
SWIDTH 42 0
DWIDTH 8 0
BBX 2 2 3 9
BITMAP
C0
C0
ENDCHAR
STARTCHAR quotesinglbase
ENCODING -1
SWIDTH 42 0
DWIDTH 8 0
BBX 2 5 3 -3
BITMAP
C0
C0
40
40
80
ENDCHAR
STARTCHAR florin
ENCODING -1
SWIDTH 42 0
DWIDTH 8 0
BBX 6 13 2 -3
BITMAP
1C
10
20
20
20
F0
40
40
40
C0
80
80
80
ENDCHAR
STARTCHAR trademark
ENCODING -1
SWIDTH 42 0
DWIDTH 8 0
BBX 7 5 1 5
BITMAP
F2
5A
5E
5A
52
ENDCHAR
STARTCHAR fraction
ENCODING -1
SWIDTH 42 0
DWIDTH 8 0
BBX 8 10 0 0
BITMAP
03
02
04
0C
08
10
30
20
40
80
ENDCHAR
STARTCHAR grave
ENCODING -1
SWIDTH 42 0
DWIDTH 8 0
BBX 3 1 3 9
BITMAP
E0
ENDCHAR
STARTCHAR perthousand
ENCODING -1
SWIDTH 42 0
DWIDTH 8 0
BBX 9 10 0 0
BITMAP
4400
A800
A800
5000
1000
2900
3680
5680
5680
8900
ENDCHAR
STARTCHAR ellipsis
ENCODING -1
SWIDTH 42 0
DWIDTH 8 0
BBX 7 1 1 0
BITMAP
92
ENDCHAR
STARTCHAR quotedblright
ENCODING -1
SWIDTH 42 0
DWIDTH 8 0
BBX 5 3 2 7
BITMAP
88
88
88
ENDCHAR
STARTCHAR Scaron
ENCODING -1
SWIDTH 42 0
DWIDTH 8 0
BBX 6 12 1 0
BITMAP
F8
00
78
84
80
C0
60
18
04
04
8C
F8
ENDCHAR
STARTCHAR quotedblbase
ENCODING -1
SWIDTH 42 0
DWIDTH 8 0
BBX 5 4 2 -3
BITMAP
88
88
88
88
ENDCHAR
STARTCHAR zcaron
ENCODING -1
SWIDTH 42 0
DWIDTH 8 0
BBX 7 9 1 0
BITMAP
7C
00
FE
04
08
10
20
40
FE
ENDCHAR
ENDFONT
